# xmcd
#
# Track frame offsets:
#  151
#  19304
#  41588
#  66374
#  93647
#  114191
#  135413
#
# Disc length: 1998 seconds
#
# Revision: 0
# Processed by: cddbd v1.4PL0 Copyright (c) Steve Scherf et al.
# Submitted via: AltoMP3_Maker 3.0
#
DISCID=5907cc07
DTITLE=Chakri - Amma Nanna Oka Tamil Ammai
DYEAR=1900
DGENRE=
TTITLE0=Chennai
TTITLE1=Lunch
TTITLE2=Neeve
TTITLE3=Zum
TTITLE4=Chumma
TTITLE5=Taluku
TTITLE6=Spirit of Chandu - Theme Music
EXTD=
EXTT0=
EXTT1=
EXTT2=
EXTT3=
EXTT4=
EXTT5=
EXTT6=
PLAYORDER=
